<?xml version="1.0" encoding="UTF-8" standalone="no"?>
<!DOCTYPE svg PUBLIC "-//W3C//DTD SVG 1.1//EN" "http://www.w3.org/Graphics/SVG/1.1/DTD/svg11.dtd">
<svg width="100%" height="100%" viewBox="0 0 512 512" version="1.1" xmlns="http://www.w3.org/2000/svg" xmlns:xlink="http://www.w3.org/1999/xlink" xml:space="preserve" xmlns:serif="http://www.serif.com/" style="fill-rule:evenodd;clip-rule:evenodd;stroke-linejoin:round;stroke-miterlimit:2;">
    <g transform="matrix(1.955134,1.955134,-0.343256,0.343256,-116.403191,-253.362223)">
        <path d="M334,199.5C334,227.924 329.949,251 324.958,251L126.042,251C121.051,251 117,227.924 117,199.5C117,171.076 121.051,148 126.042,148L324.958,148C329.949,148 334,171.076 334,199.5Z" style="fill:rgb(33,150,243);"/>
    </g>
    <g transform="matrix(-1.955134,1.955134,-0.343256,-0.343256,765.362223,-116.403191)">
        <path d="M334,199.5C334,227.924 329.949,251 324.958,251L126.042,251C121.051,251 117,227.924 117,199.5C117,171.076 121.051,148 126.042,148L324.958,148C329.949,148 334,171.076 334,199.5Z" style="fill:rgb(33,150,243);"/>
    </g>
</svg>
