<?xml version="1.0" encoding="UTF-8" standalone="no"?>
<!DOCTYPE svg PUBLIC "-//W3C//DTD SVG 1.1//EN" "http://www.w3.org/Graphics/SVG/1.1/DTD/svg11.dtd">
<svg width="100%" height="100%" viewBox="0 0 512 512" version="1.1" xmlns="http://www.w3.org/2000/svg" xmlns:xlink="http://www.w3.org/1999/xlink" xml:space="preserve" xmlns:serif="http://www.serif.com/" style="fill-rule:evenodd;clip-rule:evenodd;stroke-linejoin:round;stroke-miterlimit:2;">
    <g transform="matrix(1.8,0,0,1.609677,-204.8,-9.596774)">
        <g transform="matrix(1.201923,0,0,1.307692,80.519231,-42.307692)">
            <path d="M146,40L250,105L146,170L42,105L146,40Z" style="fill:rgb(76,175,80);"/>
            <path d="M146.3,39.493L250.3,104.493L250.3,105.507L146.3,170.507L145.7,170.507L41.7,105.507L41.7,104.493L145.7,39.493L146.3,39.493ZM146,40L42,105L146,170L250,105L146,40Z"/>
        </g>
        <g transform="matrix(1.201923,0,0,1.307692,80.519231,-7.307692)">
            <path d="M231.647,93.529L250,105L146,170L42,105L60.353,93.529L146,147.059L231.647,93.529Z" style="fill:rgb(76,175,80);fill-opacity:0.8;"/>
            <path d="M231.887,93.124L250.24,104.594C250.378,104.68 250.462,104.834 250.462,105C250.462,105.166 250.378,105.32 250.24,105.406L146.24,170.406C146.093,170.498 145.907,170.498 145.76,170.406L41.76,105.406C41.622,105.32 41.538,105.166 41.538,105C41.538,104.834 41.622,104.68 41.76,104.594L60.113,93.124C60.26,93.031 60.446,93.031 60.593,93.124L146,146.503L231.407,93.124C231.554,93.031 231.74,93.031 231.887,93.124ZM231.647,93.529L146,147.059L60.353,93.529L42,105L146,170L250,105L231.647,93.529Z"/>
        </g>
        <g transform="matrix(1.201923,0,0,1.307692,80.519231,27.692308)">
            <path d="M231.647,93.529L250,105L146,170L42,105L60.353,93.529L146,147.059L231.647,93.529Z" style="fill:rgb(76,175,80);fill-opacity:0.6;"/>
            <path d="M231.887,93.124L250.24,104.594C250.378,104.68 250.462,104.834 250.462,105C250.462,105.166 250.378,105.32 250.24,105.406L146.24,170.406C146.093,170.498 145.907,170.498 145.76,170.406L41.76,105.406C41.622,105.32 41.538,105.166 41.538,105C41.538,104.834 41.622,104.68 41.76,104.594L60.113,93.124C60.26,93.031 60.446,93.031 60.593,93.124L146,146.503L231.407,93.124C231.554,93.031 231.74,93.031 231.887,93.124ZM231.647,93.529L146,147.059L60.353,93.529L42,105L146,170L250,105L231.647,93.529Z"/>
        </g>
        <g transform="matrix(1.201923,0,0,1.307692,80.519231,62.692308)">
            <path d="M231.647,93.529L250,105L146,170L42,105L60.353,93.529L146,147.059L231.647,93.529Z" style="fill:rgb(76,175,80);fill-opacity:0.4;"/>
            <path d="M231.887,93.124L250.24,104.594C250.378,104.68 250.462,104.834 250.462,105C250.462,105.166 250.378,105.32 250.24,105.406L146.24,170.406C146.093,170.498 145.907,170.498 145.76,170.406L41.76,105.406C41.622,105.32 41.538,105.166 41.538,105C41.538,104.834 41.622,104.68 41.76,104.594L60.113,93.124C60.26,93.031 60.446,93.031 60.593,93.124L146,146.503L231.407,93.124C231.554,93.031 231.74,93.031 231.887,93.124ZM231.647,93.529L146,147.059L60.353,93.529L42,105L146,170L250,105L231.647,93.529Z"/>
        </g>
        <g transform="matrix(1.201923,0,0,1.307692,80.519231,97.692308)">
            <path d="M231.647,93.529L250,105L146,170L42,105L60.353,93.529L146,147.059L231.647,93.529Z" style="fill:rgb(76,175,80);fill-opacity:0.2;"/>
            <path d="M231.887,93.124L250.24,104.594C250.378,104.68 250.462,104.834 250.462,105C250.462,105.166 250.378,105.32 250.24,105.406L146.24,170.406C146.093,170.498 145.907,170.498 145.76,170.406L41.76,105.406C41.622,105.32 41.538,105.166 41.538,105C41.538,104.834 41.622,104.68 41.76,104.594L60.113,93.124C60.26,93.031 60.446,93.031 60.593,93.124L146,146.503L231.407,93.124C231.554,93.031 231.74,93.031 231.887,93.124ZM231.647,93.529L146,147.059L60.353,93.529L42,105L146,170L250,105L231.647,93.529Z"/>
        </g>
    </g>
</svg>
