<?xml version="1.0" encoding="UTF-8" standalone="no"?>
<!DOCTYPE svg PUBLIC "-//W3C//DTD SVG 1.1//EN" "http://www.w3.org/Graphics/SVG/1.1/DTD/svg11.dtd">
<svg width="100%" height="100%" viewBox="0 0 512 512" version="1.1" xmlns="http://www.w3.org/2000/svg" xmlns:xlink="http://www.w3.org/1999/xlink" xml:space="preserve" xmlns:serif="http://www.serif.com/" style="fill-rule:evenodd;clip-rule:evenodd;stroke-linejoin:round;stroke-miterlimit:2;">
    <g transform="matrix(1.053812,0,0,0.995763,-12.64574,-19.915254)">
        <path d="M235,102.6L235,173.4C235,218.988 200.027,256 156.95,256L90.05,256C46.973,256 12,218.988 12,173.4L12,102.6C12,57.012 46.973,20 90.05,20L156.95,20C200.027,20 235,57.012 235,102.6ZM204.16,112.391C204.16,79.413 178.86,52.638 147.698,52.638L99.302,52.638C68.14,52.638 42.84,79.413 42.84,112.391L42.84,163.609C42.84,196.587 68.14,223.362 99.302,223.362L147.698,223.362C178.86,223.362 204.16,196.587 204.16,163.609L204.16,112.391Z" style="fill:rgb(33,150,243);"/>
    </g>
    <g transform="matrix(1.053812,0,0,0.995763,264.35426,-19.915254)">
        <path d="M235,102.6L235,173.4C235,218.988 200.027,256 156.95,256L90.05,256C46.973,256 12,218.988 12,173.4L12,102.6C12,57.012 46.973,20 90.05,20L156.95,20C200.027,20 235,57.012 235,102.6ZM204.16,112.391C204.16,79.413 178.86,52.638 147.698,52.638L99.302,52.638C68.14,52.638 42.84,79.413 42.84,112.391L42.84,163.609C42.84,196.587 68.14,223.362 99.302,223.362L147.698,223.362C178.86,223.362 204.16,196.587 204.16,163.609L204.16,112.391Z" style="fill:rgb(33,150,243);"/>
    </g>
    <g transform="matrix(1.053812,0,0,0.995763,-12.64574,257.084746)">
        <path d="M235,102.6L235,173.4C235,218.988 200.027,256 156.95,256L90.05,256C46.973,256 12,218.988 12,173.4L12,102.6C12,57.012 46.973,20 90.05,20L156.95,20C200.027,20 235,57.012 235,102.6ZM204.16,112.391C204.16,79.413 178.86,52.638 147.698,52.638L99.302,52.638C68.14,52.638 42.84,79.413 42.84,112.391L42.84,163.609C42.84,196.587 68.14,223.362 99.302,223.362L147.698,223.362C178.86,223.362 204.16,196.587 204.16,163.609L204.16,112.391Z" style="fill:rgb(33,150,243);"/>
    </g>
    <g transform="matrix(1.053812,0,0,0.995763,264.35426,257.084746)">
        <path d="M235,102.6L235,173.4C235,218.988 200.027,256 156.95,256L90.05,256C46.973,256 12,218.988 12,173.4L12,102.6C12,57.012 46.973,20 90.05,20L156.95,20C200.027,20 235,57.012 235,102.6ZM204.16,112.391C204.16,79.413 178.86,52.638 147.698,52.638L99.302,52.638C68.14,52.638 42.84,79.413 42.84,112.391L42.84,163.609C42.84,196.587 68.14,223.362 99.302,223.362L147.698,223.362C178.86,223.362 204.16,196.587 204.16,163.609L204.16,112.391Z" style="fill:rgb(33,150,243);"/>
    </g>
</svg>
